<svg width="11" height="18" viewBox="0 0 11 18" fill="none" xmlns="http://www.w3.org/2000/svg">
<path d="M5.20985 0L10.4197 8.25634L5.20985 16.5127L0 8.25634L5.20985 0Z" fill="#00EFD1"/>
<path d="M5.74539 0.135328C5.71924 0.0938846 5.68302 0.0597386 5.64011 0.0360747C5.59721 0.0124108 5.549 0 5.5 0C5.451 0 5.40279 0.0124108 5.35989 0.0360747C5.31698 0.0597386 5.28076 0.0938846 5.25461 0.135328L0.0447626 8.39166C0.0155197 8.43801 0 8.49169 0 8.54649C0 8.60129 0.0155197 8.65497 0.0447626 8.70132L5.25461 16.9577C5.28076 16.9991 5.31698 17.0332 5.35989 17.0569C5.40279 17.0806 5.451 17.093 5.5 17.093C5.549 17.093 5.59721 17.0806 5.64011 17.0569C5.68302 17.0332 5.71924 16.9991 5.74539 16.9577L10.9552 8.70132C10.9845 8.65497 11 8.60129 11 8.54649C11 8.49169 10.9845 8.43801 10.9552 8.39166L5.74539 0.135328ZM5.5 16.2591L0.633242 8.54649L5.5 0.833843L10.3668 8.54649L5.5 16.2591Z" fill="#083863"/>
</svg>
