<svg width="30" height="30" viewBox="0 0 30 30" fill="none" xmlns="http://www.w3.org/2000/svg">
<path d="M25.5659 7.4874C22.1282 4.9149 18.8345 4.9872 18.8345 4.9872L18.4979 5.3718C22.5848 6.5979 24.4841 8.4009 24.4841 8.4009C18.6368 5.1816 11.189 5.2047 5.10707 8.4009C5.10707 8.4009 7.07837 6.5016 11.4059 5.2755L11.1656 4.9869C11.1656 4.9869 7.89587 4.9149 4.43417 7.4871C4.43417 7.4871 0.972168 13.7136 0.972168 21.3828C0.972168 21.3828 2.99177 24.8448 8.30477 25.0131C8.30477 25.0131 9.19427 23.9553 9.91547 23.0418C6.86237 22.1283 5.70827 20.229 5.70827 20.229C7.62647 21.4293 9.56597 22.1805 11.9831 22.6572C15.9155 23.4666 20.807 22.6344 24.4604 20.229C24.4604 20.229 23.2583 22.1763 20.1089 23.0658C20.8301 23.9553 21.6956 24.9891 21.6956 24.9891C27.0086 24.8208 29.0279 21.3588 29.0279 21.3831C29.0276 13.7139 25.5659 7.4874 25.5659 7.4874ZM10.5164 19.1472C9.16997 19.1472 8.06417 17.9691 8.06417 16.5027C8.16257 12.9906 12.8948 13.0014 12.9686 16.5027C12.9686 17.9691 11.8865 19.1472 10.5164 19.1472ZM19.2911 19.1472C17.9447 19.1472 16.8389 17.9691 16.8389 16.5027C16.9469 12.9975 21.62 12.996 21.7433 16.5027C21.7433 17.9691 20.6615 19.1472 19.2911 19.1472Z" fill="#666666"/>
</svg>
