<svg width="9" height="8" viewBox="0 0 9 8" fill="none" xmlns="http://www.w3.org/2000/svg">
<path d="M3.15935 0.295241C2.56416 0.263607 1.96722 0.462785 1.52785 0.902148C0.64854 1.78322 0.740514 3.26182 1.68134 4.20382L1.98186 4.50434L4.71294 7.23777C4.76785 7.2925 4.84221 7.32323 4.91974 7.32323C4.99726 7.32323 5.07163 7.2925 5.12653 7.23777L7.85644 4.50434L8.15696 4.20382C9.09779 3.26182 9.18918 1.78322 8.30928 0.902734C7.42997 0.0222498 5.95429 0.115981 5.01405 1.05739C4.96164 1.1098 4.87666 1.1098 4.82425 1.05739C4.35384 0.585807 3.75513 0.326875 3.15935 0.295241Z" fill="#969696"/>
</svg>
