<svg width="11" height="11" viewBox="0 0 11 11" fill="none" xmlns="http://www.w3.org/2000/svg">
<path d="M5.53153 0.405273C2.77658 0.405273 0.522522 2.65933 0.522522 5.41428C0.522522 8.16924 2.77658 10.4233 5.53153 10.4233C8.28649 10.4233 10.5405 8.16924 10.5405 5.41428C10.5405 2.65933 8.28649 0.405273 5.53153 0.405273ZM6.53333 7.26762C6.28288 7.41789 5.98234 7.31771 5.83207 7.06726L5.08072 5.66473C5.03063 5.56455 5.03063 5.51446 5.03063 5.41428V2.90978C5.03063 2.60924 5.23099 2.40888 5.53153 2.40888C5.83207 2.40888 6.03243 2.60924 6.03243 2.90978V5.26401L6.73369 6.56635C6.83387 6.8168 6.78378 7.11734 6.53333 7.26762Z" fill="#969696"/>
</svg>
