<svg width="754" height="132" viewBox="0 0 754 132" fill="none" xmlns="http://www.w3.org/2000/svg">
<path fill-rule="evenodd" clip-rule="evenodd" d="M731.517 2.43049C738.399 2.47984 744.861 6.41238 747.34 12.8326C755.463 33.8683 754.358 49.0451 747.112 69.9001C744.714 76.8005 737.992 81.2436 730.688 81.3025C545.357 82.7954 413.283 83.3417 261.563 82.7891C240.374 104.725 221.277 121.226 213.355 128.071C211.757 129.452 210.614 130.44 210 131C223.841 115.689 236.55 97.1747 245.323 82.7261C179.063 82.4533 108.644 81.974 28.1693 81.2758C22.9767 81.2307 17.9153 78.9743 14.7372 74.8675C-3.86644 50.8275 -3.27612 34.5636 14.6967 9.4564C17.887 4.99972 23.1927 2.48948 28.6735 2.45156C301.764 0.562182 459.17 0.477855 731.517 2.43049Z" fill="white"/>
<path d="M747.34 12.8326L746.407 13.1929V13.1929L747.34 12.8326ZM731.517 2.43049L731.524 1.43052L731.517 2.43049ZM747.112 69.9001L748.056 70.2283V70.2283L747.112 69.9001ZM730.688 81.3025L730.696 82.3024L730.688 81.3025ZM261.563 82.7891L261.566 81.7891C261.294 81.7881 261.033 81.8984 260.843 82.0944L261.563 82.7891ZM213.355 128.071L214.009 128.828L213.355 128.071ZM210 131L209.258 130.329C208.9 130.725 208.916 131.332 209.295 131.709C209.673 132.085 210.28 132.098 210.674 131.739L210 131ZM245.323 82.7261L246.177 83.2451C246.364 82.937 246.371 82.552 246.195 82.2375C246.019 81.923 245.687 81.7276 245.327 81.7261L245.323 82.7261ZM28.1693 81.2758L28.1607 82.2757L28.1693 81.2758ZM14.7372 74.8675L15.5281 74.2555L14.7372 74.8675ZM14.6967 9.4564L13.8835 8.87432V8.87432L14.6967 9.4564ZM28.6735 2.45156L28.6666 1.45158L28.6735 2.45156ZM748.273 12.4724C745.627 5.62043 738.762 1.48242 731.524 1.43052L731.51 3.43047C738.036 3.47726 744.095 7.20433 746.407 13.1929L748.273 12.4724ZM748.056 70.2283C751.698 59.7476 753.82 50.6286 753.99 41.4526C754.159 32.268 752.372 23.0855 748.273 12.4724L746.407 13.1929C750.432 23.6154 752.154 32.5392 751.99 41.4157C751.826 50.3008 749.772 59.1976 746.167 69.5719L748.056 70.2283ZM730.696 82.3024C738.387 82.2405 745.508 77.5613 748.056 70.2283L746.167 69.5719C743.92 76.0396 737.598 80.2468 730.68 80.3025L730.696 82.3024ZM261.559 83.7891C413.285 84.3417 545.363 83.7954 730.696 82.3024L730.68 80.3025C545.351 81.7954 413.281 82.3417 261.566 81.7891L261.559 83.7891ZM260.843 82.0944C239.688 103.997 220.618 120.474 212.701 127.315L214.009 128.828C221.936 121.978 241.061 105.454 262.282 83.4839L260.843 82.0944ZM212.701 127.315C211.11 128.689 209.953 129.689 209.326 130.261L210.674 131.739C211.275 131.19 212.405 130.214 214.009 128.828L212.701 127.315ZM210.742 131.671C224.639 116.298 237.384 97.7266 246.177 83.2451L244.468 82.2071C235.715 96.6228 223.043 115.081 209.258 130.329L210.742 131.671ZM28.1607 82.2757C108.637 82.9739 179.057 83.4533 245.318 83.7261L245.327 81.7261C179.069 81.4533 108.652 80.974 28.178 80.2758L28.1607 82.2757ZM13.9464 75.4795C17.3317 79.8542 22.6954 82.2283 28.1607 82.2757L28.178 80.2758C23.2579 80.2331 18.4989 78.0945 15.5281 74.2555L13.9464 75.4795ZM13.8835 8.87432C4.85571 21.4858 0.071605 32.0364 0.000797272 42.5554C-0.0701071 53.0888 4.58503 63.3826 13.9464 75.4795L15.5281 74.2555C6.28574 62.3124 1.93421 52.4543 2.00075 42.5689C2.06739 32.6692 6.56485 22.5342 15.5098 10.0385L13.8835 8.87432ZM28.6666 1.45158C22.8959 1.49151 17.2771 4.13367 13.8835 8.87432L15.5098 10.0385C18.4968 5.86577 23.4896 3.48745 28.6804 3.45154L28.6666 1.45158ZM731.524 1.43052C459.172 -0.522155 301.762 -0.437824 28.6666 1.45158L28.6804 3.45154C301.767 1.56219 459.168 1.47787 731.51 3.43047L731.524 1.43052Z" fill="black"/>
</svg>
