<svg width="30" height="30" viewBox="0 0 30 30" fill="none" xmlns="http://www.w3.org/2000/svg">
<path d="M30 6.63562C28.8715 7.12782 27.678 7.45492 26.4562 7.60687C27.7438 6.84305 28.7064 5.63356 29.1619 4.2075C27.9563 4.92251 26.6373 5.42602 25.2619 5.69625C24.4186 4.79584 23.324 4.16985 22.1203 3.89961C20.9166 3.62938 19.6595 3.72739 18.5122 4.18092C17.3649 4.63445 16.3806 5.42252 15.687 6.44275C14.9935 7.46299 14.6228 8.66822 14.6231 9.90187C14.6231 10.3894 14.6644 10.8581 14.7656 11.3044C12.3189 11.1844 9.92504 10.5494 7.74056 9.44085C5.55609 8.33229 3.63018 6.77516 2.08875 4.87125C1.29904 6.22473 1.05489 7.82833 1.40603 9.35551C1.75717 10.8827 2.67719 12.2186 3.97875 13.0912C3.00517 13.0651 2.05214 12.8053 1.2 12.3337V12.4012C1.20163 13.8214 1.6925 15.1977 2.58997 16.2984C3.48744 17.399 4.73672 18.1569 6.1275 18.4444C5.60135 18.583 5.0591 18.6511 4.515 18.6469C4.12423 18.6538 3.73385 18.6186 3.35062 18.5419C3.74801 19.7625 4.51404 20.83 5.54324 21.5973C6.57243 22.3646 7.81418 22.7939 9.0975 22.8263C6.92051 24.5288 4.23558 25.4524 1.47188 25.4494C0.9675 25.4494 0.48375 25.4269 0 25.365C2.81228 27.1773 6.08939 28.1359 9.435 28.125C20.7525 28.125 26.94 18.75 26.94 10.6237C26.94 10.3519 26.9306 10.0894 26.9175 9.82875C28.1306 8.9606 29.1751 7.87853 30 6.63562Z" fill="#666666"/>
</svg>
