<svg xmlns="http://www.w3.org/2000/svg" width="19" height="19" viewBox="0 0 19 19" fill="none">
  <path d="M0.940351 17.9108C1.12789 18.0983 1.38224 18.2037 1.64746 18.2037C1.91267 18.2037 2.16703 18.0983 2.35456 17.9108L16.204 4.06142L16.204 10.1312C16.2085 10.3934 16.3159 10.6433 16.5029 10.8271C16.6899 11.0109 16.9416 11.1138 17.2038 11.1138C17.466 11.1138 17.7177 11.0109 17.9047 10.8271C18.0918 10.6433 18.1991 10.3934 18.2037 10.1312L18.2037 1.64594C18.204 1.51546 18.1786 1.38619 18.1289 1.26557C18.0791 1.14494 18.006 1.03535 17.9137 0.943076L17.9109 0.940248C17.819 0.848324 17.7087 0.774784 17.5856 0.725287C17.4647 0.674804 17.3349 0.648847 17.2038 0.64892L8.71853 0.64892C8.45636 0.653477 8.20647 0.76082 8.02268 0.947832C7.83889 1.13485 7.7359 1.38656 7.7359 1.64877C7.7359 1.91097 7.83889 2.16269 8.02268 2.3497C8.20647 2.53672 8.45636 2.64406 8.71853 2.64862L14.7897 2.6472L0.940351 16.4966C0.752815 16.6841 0.647458 16.9385 0.647458 17.2037C0.647458 17.4689 0.752815 17.7233 0.940351 17.9108Z" fill="white"/>
</svg>